<svg xmlns:x="http://ns.adobe.com/Extensibility/1.0/" xmlns:i="http://ns.adobe.com/AdobeIllustrator/10.0/" xmlns:graph="http://ns.adobe.com/Graphs/1.0/" xmlns="http://www.w3.org/2000/svg" xmlns:xlink="http://www.w3.org/1999/xlink" version="1.1" x="0px" y="0px" viewBox="0 0 100 125" style="enable-background:new 0 0 100 100;" xml:space="preserve"><metadata><sfw xmlns="http://ns.adobe.com/SaveForWeb/1.0/"><slices/><sliceSourceBounds bottomLeftOrigin="true" height="66.6" width="77.5" x="12" y="16.1"/></sfw></metadata><path d="M87.5,21.9l2-4.6c0,0-6.8,1.1-15,1.3c-9.3,0.3-38.9,0.4-49,0C17.6,18.3,12,17.3,12,17.3l2.2,4.7c0,0,4.2,0.9,10.4,1.2  l-0.4,9.2l-8.4,0l1.9,5.1h6.2l-2.2,46.2l5.5,0l2.2-46.2h42.8l2.2,46.3l5.5,0l-2.2-46.4h6.2l1.7-5.1l-8.1,0L77,23.1  C83,22.8,87.5,21.9,87.5,21.9z M29.6,32.4l0.4-9.1c11.1,0.2,31.6,0.2,41.4,0l0.4,9.1L29.6,32.4z"/><text x="0" y="115" fill="#000000" font-size="5px" font-weight="bold" font-family="'Helvetica Neue', Helvetica, Arial-Unicode, Arial, Sans-serif">Created by Hayashi Fumihiro</text><text x="0" y="120" fill="#000000" font-size="5px" font-weight="bold" font-family="'Helvetica Neue', Helvetica, Arial-Unicode, Arial, Sans-serif">from the Noun Project</text></svg>