<?xml version="1.0" encoding="UTF-8"?>
<svg xmlns="http://www.w3.org/2000/svg" version="1.1" viewBox="0 0 216 216">
  <defs>
    <style>
      .cls-1 {
        fill: #c22032;
      }

      .cls-2 {
        fill: #811517;
      }

      .cls-3 {
        opacity: .4;
      }

      .cls-4 {
        fill: #9e1c20;
      }
    </style>
  </defs>
  <!-- Generator: Adobe Illustrator 28.7.1, SVG Export Plug-In . SVG Version: 1.2.0 Build 142)  -->
  <g>
    <g id="Layer_1">
      <g id="Layer_1-2" data-name="Layer_1">
        <g>
          <path class="cls-4" d="M87.9,105.2c-2.1-5.2-1.8-11.3.8-16.2,1.6-3.1,4.1-5.6,5.8-8.6,3.3-5.6,3.9-12.3,4.5-18.8,1.4,3.4,5.1,5.8,8.8,5.8.7,0,1.5-.1,2.1-.5.6-.4.9-.9,1.3-1.5,2.1-3.7,3-8.1,2.3-12.3.4,2.9,3.4,5.3,6.3,5.2.4,0,.7,0,1.1-.3.3-.2.5-.5.7-.7,1.4-1.9,2.3-4.2,2.5-6.6,1.6.7,3.3,1.1,4.9.5,1.5-.6,2.4-2.1,3-3.6.9-2.1,1.5-4.4,1.7-6.7.7,2.7,3.6,3.9,6.3,4.1.3,0,.6,0,.8-.1.3-.2.4-.5.5-.8.8-2.1,1.4-4.3,1.5-6.5,2.4,1.2,4.8,0,6.6-2,1.8-2,2.6-4.8,2.9-7.5.5,3.2.8,6.4,1.3,9.5.3,1.7.5,3.5,1,5.2.5,1.7,1.3,3.4,1.9,5.1,1.3,4.3.8,9.1-1.4,13,2.4.3,5.3.9,7.7,1.2-2.5,4-4.6,8.1-6.2,12.5,2.8.5,5.6,0,8.2-1.2.6-.3,1.2-.6,1.4-1.2-1.4,5.5-3,11-5,16.3-.4.9-.7,1.9-.7,2.9.1,1.7,1.6,3.1,3.3,3.5s3.5-.3,4.8-1.3c-2.1,2.8-3.5,6.1-4.4,9.5-.7,2.5-1.1,5.5.7,7.3.5.5,1.2.8,1.7.4-2.2,3.5-4.5,6.8-6.6,10.3-1.6,2.7-3.3,5.5-3.4,8.6,0,.6,0,1.1.3,1.6.6,1.1,1.9,1.5,3.1,1.5,3.3.2,6.6-1.1,8.9-3.5,1.3,3.1,4.6,5.2,7.9,6,3.3.8,6.8.5,10.2.2,3-.2,6.1-.5,9.1-.7-4.7,3.8-7.5,10.2-6.4,16.2,0-.3,0-.6.1-.9-1.1,1-2.1,1.7-3.2,2.7-1.5,1.4-3.1,3-3.6,5s.5,4.6,2.6,4.9c-.7.3-1.4.7-2.1,1-2.2,1-4.5,2.1-6,4-1.6,1.9-2.2,4.7-.8,6.7.3.5,1.1.9,1.4.4-2,.4-4.4.9-6.4,1.3-1.1.2-2.1.4-3.1,1-.9.5-1.7,1.5-1.8,2.5-3.4-.8-6.5-1-10-.8-.4,0-.8,0-1.2.3-.3.3-.4.7-.5,1.1-.7,4.4,2,8.5,4.6,12.1-2.4.8-4.9.8-7.4.6-8.1-.6-14.9-6.2-20.4-12.2-1.6-1.8-3.2-3.6-5.1-5.2-3,1-6.8,1.8-9.3-.1-1.1-.9-1.9-2.2-2.5-3.5-1.6-3-3.1-6.1-4.4-9.3-2.3,1.5-4.4,3.2-6.7,4.8-2.2,1.5-4.6,3.3-5,5.9-.1.9,0,2-.6,2.7-.3.4-.8.6-1.3.8-4.3,1.5-8.9-.7-12.9-2.8-4-2.1-8.6-4.3-12.9-2.9,3.2-.9,5.1-4.5,5.5-7.7,0-.4,0-.8,0-1.2-.2-.5-.5-.8-.9-1.1-2-1.8-3.9-3.6-6.1-5.1-3.6-2.6-7.8-4.6-10-8.4.7-1.1,1.2-2.5,1.1-3.8,0-.9-.5-1.8-1-2.6-.6-1.1-1.3-2.2-2.2-3.1-2.3-2.4-5.6-3.5-8.8-4.4,2-.1,3.6-2.2,3.8-4.2.2-2-.8-3.9-2.2-5.2-1.5-1.3-3.4-2-5.3-2.3,1.4.5,2.3-.4,3.1-1.7.7-1.3.7-3,.1-4.4-.5-1.4-1.5-2.6-2.5-3.8-1.2-1.4-2.6-2.9-4.4-3,2.8.5,5.7-.3,8.5-1,4.3-1.1,8.8-1.8,13.2-2.1.5-3.1-.5-6.2-2.7-8.5,9.3-.2,19,3.6,27.3,7.7h0Z"/>
          <g class="cls-3">
            <path class="cls-1" d="M179.3,174.9c-.2,0-.5.1-.8.2.3.1.6.1.8-.2Z"/>
            <path class="cls-1" d="M190.9,151.2c0-.3,0-.6.1-.9,0,0-.1.1-.2.2,0,.2,0,.5,0,.7Z"/>
            <path class="cls-1" d="M197.2,135c-3,.2-6.1.5-9.1.7-3.4.3-6.9.5-10.2-.2s-6.5-2.9-7.9-6c-2.3,2.4-5.6,3.7-8.9,3.5-1.2,0-2.6-.4-3.1-1.5-.3-.5-.3-1.1-.3-1.7,0-3.1,1.8-6,3.4-8.6,2.1-3.5,4.4-6.9,6.6-10.3-.5.4-1.3,0-1.7-.4-1.8-1.8-1.4-4.8-.7-7.3.9-3.4,2.3-6.7,4.4-9.5-1.3,1.1-3.1,1.7-4.8,1.3-1.7-.4-3.1-1.8-3.3-3.5,0-1,.3-2,.7-2.9,2-5.3,3.6-10.8,5-16.3-.2.6-.8.9-1.4,1.2-2.6,1.2-5.4,1.7-8.2,1.2,1.7-4.4,3.8-8.5,6.2-12.5-2.4-.3-5.3-.9-7.7-1.2,2.2-3.9,2.7-8.7,1.4-13-.5-1.7-1.3-3.4-1.9-5.1-.5-1.7-.8-3.4-1-5.2-.5-3.2-.8-6.4-1.3-9.5-.3,2.7-1,5.5-2.9,7.5-1.1,1.2-2.3,2.1-3.7,2.4l-33.6,128c.9,2,1.9,4.1,2.9,6.1.7,1.3,1.4,2.6,2.5,3.5,2.5,2,6.3,1.1,9.3.1,1.9,1.5,3.5,3.4,5.1,5.2,5.5,6,12.3,11.6,20.4,12.2,2.5.2,5,.2,7.4-.6-2.6-3.6-5.3-7.7-4.6-12.1,0-.4.2-.8.5-1.1.3-.3.7-.3,1.2-.3,3.5-.2,6.6,0,10,.8,0-1.1.9-2,1.8-2.5s2-.8,3.1-1c1.7-.3,3.8-.7,5.6-1.1-.3-.1-.5-.3-.7-.5-1.4-2-.7-4.9.8-6.7,1.6-1.9,3.8-2.9,6-4,.7-.3,1.4-.7,2.1-1-2.1-.3-3.1-2.9-2.6-4.9s2.1-3.6,3.6-5c1-.9,2-1.6,3-2.5-.8-5.8,1.9-11.8,6.5-15.5h0Z"/>
          </g>
          <path class="cls-2" d="M148.8,43.2c0,2.5-.2,5-.4,7.4l-.9,7.4-1.5,7.3-1.9,7.2c-2.7,9.6-6.5,18.8-10.4,27.9-3.9,9.1-8,18.1-11.8,27.1l-2.8,6.8-2.5,6.9-2.4,7c-.7,2.4-1.3,4.7-2.1,7.1.3-2.5.7-4.9,1.1-7.4l1.6-7.3,2-7.2,2.3-7.1c3.2-9.4,7.2-18.5,11-27.6,3.9-9.1,7.7-18.1,11.1-27.3,3.3-9.2,5.9-18.7,7.5-28.5h0Z"/>
          <path class="cls-2" d="M102,70.6c2.7,9.2,8.8,15.9,14.2,23.8,2.6,4,5.1,8.3,6.2,13.2.6,2.4.9,4.9.6,7.4-.3,2.4-.8,4.6-.6,7-1.1-2.2-1-4.8-1.3-7-.2-2.2-.8-4.4-1.6-6.5-1.6-4.2-3.9-8.1-6.5-11.9-2.5-3.9-5.3-7.7-7.5-12.1-2.2-4.3-3.8-9.1-3.5-13.9Z"/>
          <path class="cls-2" d="M115.5,145.4c5.5-2.2,11.8-2.7,17.8-1.2,3,.6,5.9,2,8.5,3.3,2.6,1.4,5.1,2.9,7.6,3.8,5.1,2,10.8,2.3,16.3,1.5,5.6-.9,11.1-2.8,16.3-5.6-4.4,4-9.8,7-15.7,8.5-5.9,1.5-12.4,1.4-18.3-.8-5.9-2.4-10.3-6.2-15.6-7.8-5.3-1.8-11.1-2.4-17-1.7h0Z"/>
        </g>
      </g>
    </g>
  </g>
</svg>