<?xml version="1.0" encoding="UTF-8"?>
<svg xmlns="http://www.w3.org/2000/svg" version="1.1" viewBox="0 0 216 216">
  <defs>
    <style>
      .cls-1 {
        fill: #f78f2c;
      }

      .cls-2 {
        fill: #f36d23;
      }

      .cls-3 {
        fill: #c64327;
      }

      .cls-4 {
        opacity: .4;
      }
    </style>
  </defs>
  <!-- Generator: Adobe Illustrator 28.7.1, SVG Export Plug-In . SVG Version: 1.2.0 Build 142)  -->
  <g>
    <g id="Layer_1">
      <g>
        <path class="cls-3" d="M129.5,125.43c8,11.09,15.13,23.57,17.91,37.68,1.37,7.06,1.49,14.35.13,21.42-1.36,7.05-4.32,13.93-9.13,19.45l-.03.04c-1.62,1.87-4.47,1.95-6.37.18-1.89-1.77-2.12-4.71-.49-6.58.05-.06.11-.13.17-.18,7.84-8.02,10.65-21.1,8.87-33.43-1.79-12.56-7.77-24.67-15.01-35.81-.77-1.18-.49-2.74.62-3.47,1.07-.71,2.54-.39,3.33.7Z"/>
        <path class="cls-1" d="M42.37,53.49c2.95.53,5.49-2.34,5.8-5.36.3-3.02-1.02-6.04-2.43-8.8,4.3-1.74,6.18-6.78,7.36-11.4,1.33-5.21,2.32-10.58,2.08-16.04,8.18,3.88,17.81,4.39,26.31,2.34,1.14-.27,2.34-.6,3.48-.19.77.28,1.4.86,2.11,1.28,2.81,1.65,6.54.64,9.17,2.59,1.63,1.21,2.5,3.37,4.24,4.39,2.73,1.61,5.93-.28,8.35-2.11,3.91,10.47,14.81,18,25.49,17.6.82,2.36,1.77,4.38,3.05,6.53,2.33,3.89,5.96,6.75,9.51,9.5,2.28,1.77,4.76,3.62,7.54,3.74-.38,5.58.64,11.19,2.62,16.52,1.98,5.33,4.7,10.36,7.4,15.37-4.77,5.12-5.88,13.18-2.31,19.64-5.9,3.33-9.66,10.52-8.79,17.58-4.82,3.54-9.97,7.05-15.54,9.24-2.21.87-4.52,1.51-6.63,2.6-4.85,2.51-8.28,7.22-13.07,9.85-6.07,3.34-14.1,2.8-20.06-1.34-2.03-1.41-3.86-3.21-6.1-4.18-6.05-2.61-12.84,1.61-19.12-.25-1.38-9.67-8.82-18.48-17.81-21.87-2.43-.92-5.21-1.63-6.68-3.85,1.33-.45,1.9-2.3,2.08-3.74,1.14-8.76-1.03-18.09-5.95-25.66,1.87-.34,2.86-2.56,2.56-4.52-.3-1.97-1.52-3.68-2.7-5.3.65-.99,1.21-2.15,1.43-3.34,1.33-7.19.16-14.2-3.38-20.81Z"/>
        <g class="cls-4">
          <path class="cls-2" d="M146.92,53.9c-3.54-2.76-7.18-5.62-9.51-9.5-1.28-2.15-2.23-4.17-3.05-6.53-10.68.4-21.58-7.13-25.49-17.6-2.42,1.83-5.62,3.72-8.34,2.11-1.75-1.03-2.61-3.18-4.25-4.39-2.63-1.95-6.36-.94-9.17-2.59-.71-.42-1.34-1-2.11-1.28-1.13-.41-2.34-.08-3.48.19-2.65.64-5.4,1-8.19,1.11,29.01,35.44,49.1,78.4,57.91,123.14,2.1-1.09,4.4-1.73,6.61-2.59,5.57-2.18,10.72-5.7,15.54-9.23-.87-7.06,2.89-14.26,8.79-17.58-3.57-6.46-2.46-14.52,2.31-19.64-2.71-5.01-5.42-10.04-7.4-15.37-1.98-5.33-3.01-10.94-2.62-16.52-2.79-.12-5.27-1.97-7.54-3.74Z"/>
        </g>
        <path class="cls-2" d="M63.39,20.72c8.61,6.9,16.54,14.75,23.79,23.23,7.34,8.41,13.81,17.58,19.69,27.11,5.77,9.59,10.92,19.58,15.06,29.95,4.16,10.3,7.97,20.91,9.67,31.86-1.87-5.23-3.81-10.38-6.12-15.4-2.16-5.06-4.5-10.05-6.95-14.99-4.88-9.86-10.01-19.56-15.76-28.9-5.66-9.39-11.88-18.43-18.42-27.26-3.25-4.43-6.68-8.73-10.22-12.95-3.4-4.36-7.14-8.4-10.73-12.65Z"/>
        <path class="cls-2" d="M49.73,73.26c10.38,1.54,20.34,3.65,30.41,5.3,9.9,1.81,20.29,2.39,30.43,5.73-10.31.63-20.51.98-31-.76-10.29-1.85-20.51-4.95-29.85-10.27Z"/>
        <path class="cls-2" d="M127.06,110.79c2.16-11.22,4.26-22.04,5.4-33.12,1.28-11.06,1.58-22.18,1.94-33.7,3.5,11.2,4.11,23.06,2.92,34.51-1.33,11.43-4.47,22.67-10.26,32.31Z"/>
      </g>
    </g>
  </g>
</svg>