<?xml version="1.0" encoding="UTF-8"?>
<svg xmlns="http://www.w3.org/2000/svg" version="1.1" viewBox="0 0 24 30">
  <defs>
    <style>
      .cls-1 {
        fill: #d33f22;
      }
    </style>
  </defs>
  <!-- Generator: Adobe Illustrator 28.7.1, SVG Export Plug-In . SVG Version: 1.2.0 Build 142)  -->
  <g>
    <g id="Layer_1">
      <g id="Layer_1-2" data-name="Layer_1">
        <path class="cls-1" d="M7.1,6.7c1.1,0,3.5.3,4.7,1.7l.5-2.2c.7.2,2.3.9,3.3,2.5l.7-1c.7.2,1.9,1.2,1.5,4l1.5-.5c.5,2.1.3,6.2-3.9,6.7.7.7,2,1.5,4.3,1.2v1c-2.6.3-4.2-.6-5.1-1.6-.7,1.9-2.6,4.6-6,3.1l.7-1.5c-1,0-3.1,0-3.5-1l1.3-1c-1.1-.3-3.3-1.6-3.3-4l2-1c-.3-1.7-.5-5.3,1.3-6.5h0Z"/>
      </g>
    </g>
  </g>
</svg>