<?xml version="1.0" encoding="UTF-8"?>
<svg xmlns="http://www.w3.org/2000/svg" version="1.1" viewBox="0 0 216 216">
  <defs>
    <style>
      .cls-1 {
        fill: #f04b29;
      }

      .cls-2 {
        opacity: .4;
      }
    </style>
  </defs>
  <!-- Generator: Adobe Illustrator 28.7.1, SVG Export Plug-In . SVG Version: 1.2.0 Build 142)  -->
  <g>
    <g id="Layer_1">
      <g id="Layer_1-2" data-name="Layer_1">
        <g>
          <path class="cls-1" d="M127.35,147.19c1.44-.95,2.56-2.69,3.32-4.32,1.9-4.03,3.32-8.29,4.22-12.65.29-1.38,2.52-10.88,1.46-11.84.74.67,1.45,1.44,2.05,2.24.19-.66.36-1.16.56-1.81.16-.54.32-1.08.44-1.62.34-1.55.36-3.17.06-4.73.66.44,1.16,1.03,1.57,1.71.57-3.5.22-7.15-.96-10.5,1.37,2.19,2.8,4.37,4.17,6.56.44.7.89,1.41,1.57,1.88,1.32.91,3.35.54,4.25-.78.33-.48.51-1.04.67-1.6.62-2.14.97-4.37,1.03-6.6.93.7,1.59,1.45,2,2.54,2.78-2.44,4.19-6.43,3.75-10.11.37.83.7,1.65,1.07,2.48.25.58.52,1.17.93,1.64.42.47,1.03.82,1.66.77.26-.02.51-.11.7-.28.1-.09.18-.2.26-.31.36-.48.72-.97.94-1.53.3-.76.31-1.59.31-2.41,0-1,0-1.99-.02-2.99.41.76.68,1.57,1.09,2.33.16.3.34.62.63.79.32.19.72.18,1.1.17.22,0,.47-.03.61-.2.09-.1.12-.25.17-.38.13-.41.4-.76.61-1.14s.37-.82.26-1.23c-.27-1.01-.11-2.26-.38-3.27.42.85,1.66,1.06,2.53.7.88-.35,1.51-1.12,2.07-1.88,1.27-1.73,2.42-3.78,2.16-5.91.07.51.3,1.1.59,1.53s.86.72,1.34.52c.2-.09.37-.25.52-.4,2.32-2.35,4.39-4.94,6.18-7.72-1.62,5.13-3.13,10.39-4.36,15.63-.53,2.25-1.99,4.16-2.69,6.36-.09.29-.16.65.05.87.1.1.24.15.38.19,1.03.31,2.15.32,3.18.03-1.02,1.6-2.65,2.7-3.77,4.23-.22.31-.43.64-.55,1.01-.05.16-.08.33-.03.49.13.42.7.49,1.14.47-.39.29-.77.61-1.17.89-.21.16-.43.31-.59.52-.25.33-.35.75-.42,1.16-.15.79-.21,1.72.36,2.29.34.34.84.46,1.31.53.93.14,1.87.14,2.81.08-3.77,3.93-7.36,8.24-10.46,12.72-.51.73-1.01,1.48-1.29,2.33-.27.82-.3,1.7-.34,2.57-.03.79-.05,1.64.39,2.3.29.45.76.75,1.22,1.02,3.33,1.95,7.18,3.01,11.05,3.04-3.07.46-5.92,1.66-8.71,3.04-.41.2-.83.42-1.16.75-.32.33-.54.8-.45,1.26.09.45.54.84.99.75-2.81.6-5.38,2.28-7.15,4.54-.08.1-.15.2-.17.32-.04.21.1.41.27.55.5.4,1.21.37,1.86.32-4.75,1.82-9.25,4.29-13.35,7.29-1,.73-2,1.52-2.69,2.55-.67.99-1.02,2.15-1.22,3.33-.19,1.14-.22,2.39.42,3.35.78,1.16,2.3,1.55,3.7,1.69,4.83.49,9.83-.91,13.71-3.83-.53.67-1.04,1.64-.55,2.34.19.27.49.42.79.55,1.63.67,3.47.58,5.21.26,1.73-.31,3.43-.85,5.18-1.04,3.06-.35,6.14.34,9.14,1.03.81.18,1.63.37,2.38.74-4.71.1-9.07,2.44-13.24,4.65-1,.53-2.05,1.11-2.65,2.07-.6.96-.54,2.43.43,3.03-2.39.14-4.62.74-6.87,1.57-.85.31-1.71.66-2.43,1.22s-1.28,1.37-1.36,2.28.42,1.89,1.28,2.19c-1.17,0-2.35.02-3.52.03-.76,0-1.55,0-2.25.31-.45.19-.84.49-1.23.79-.15.12-.31.25-.35.44-.04.21.09.41.22.58.15.21.31.41.48.61-2.74-.33-5.47-.39-8.23-.31-.87.02-1.76.07-2.58.39-.81.32-1.55.95-1.78,1.79-.25.93.15,1.9.61,2.75.77,1.41,1.74,2.71,2.87,3.86-2.43-.32-4.84-.58-7.26-.9-.7-.09-1.47-.17-2.08.2-.48.29-.77.82-1.01,1.32-.13.26-.25.59-.08.82-6.31-3.28-11.51-7.44-19.09-4.99-3.54,1.14-6.62,3.58-8.66,6.68-2.27,3.45-2.97,7.04-6.1,10.04-.22-1.05-1.26-1.61-2.33-1.61s-2.07.51-2.98,1.07c-1.66,1.03-3.17,2.29-4.47,3.73.55-1.7,1.21-3.31,1.77-5.01.15-.48.31-.96.31-1.46s-.19-1.03-.6-1.31c-.39-.27-.9-.29-1.37-.27-3.49.11-6.93,1.31-9.73,3.38.1-.69.22-1.38-.21-1.93-.43-.55-1.21-.66-1.91-.65-2.34,0-4.66.86-6.45,2.36.68-.77,1.14-1.73,1.34-2.74.04-.18.06-.36.02-.53-.05-.23-.23-.42-.41-.58-1.04-.89-2.54-.95-3.91-.97-.75,0-1.53,0-2.2.33-.54.28-.96.77-1.53.99-.15-.56.39-1.37-.04-1.76-.1-.09-.22-.14-.34-.19-2.06-.82-4.5-.6-6.38.59.36-.58.91-1.13.89-1.81-.02-.71-.7-1.22-1.35-1.52-2.2-1.02-4.72-1-7.14-.97.15-.22.32-.4.47-.63-.94-1.22-2.6-1.59-4.13-1.81-1.9-.28-3.81-.47-5.72-.65,1.22.15,2.46.06,3.65-.26.65-.17,1.31-.43,1.77-.93.46-.49.67-1.27.35-1.86.86.51,1.86.82,2.84,1.02.69.14,1.43.2,2.08-.08.88-.38,1.44-1.41,1.26-2.36,2.02.35,4.18.57,6.01-.37.31-.16.61-.35.85-.6.83-.85.82-2.37,0-3.22,5.32,1.13,10.79-.9,15.64-3.36.72-.37,1.45-.75,2.03-1.33.58-.57.99-1.36.92-2.17-.1-1.25-1.25-2.13-2.33-2.76-1.42-.83-2.92-1.53-4.46-2.09-3.49-1.27-7.38-1.38-11.09-1.61-1.47-.09-3.01-.11-4.32.56,1.02-.41,1.73-1.52,1.8-2.62.01-.17,0-.34-.06-.5-.09-.22-.28-.37-.47-.51-3.01-2.22-7.09-2.91-10.66-1.78.44-.21.83-.57.97-1.04.23-.79-.45-1.57-1.17-1.97-1-.56-2.15-.76-3.28-.91-2.11-.28-4.32-.41-6.32.33,1.93-.9,3.85-1.75,5.66-2.88,2-1.24,4.01-2.94,4.33-5.27.28-2.01-.83-4.01-2.37-5.33s-3.46-2.1-5.34-2.85c-.45,0-.69-.37-1.05-.65-.62-.47-1.48-.57-2.03-1.12.32.11.68.16,1.01.14s.68-.23.76-.55c.08-.31-.09-.62-.27-.88-1.72-2.58-4.64-4.33-7.73-4.62,1.7-.08,3.3-1.35,3.86-2.95.1-.3.17-.62.15-.93-.07-.87-.81-1.52-1.55-2-.91-.59-1.9-1.06-2.93-1.41.2-.11.16-.31.36-.42.25-1.02-.22-2.1-.95-2.86-.73-.75-1.68-1.24-2.62-1.71-.73-.37-1.46-.74-2.19-1.11.6.4,1.59.08,1.96-.54.32-.53.23-1.21.03-1.79-.47-1.39-1.5-2.53-2.69-3.39s-2.53-1.47-3.87-2.08c.86-.4,1.18-1.47,1.07-2.41-.19-1.61-1.16-3-2.14-4.3-1.08-1.44-2.21-2.86-3.53-4.08,1.9,1.54,4.13,2.54,6.4,3.42,3.36,1.31,6.72,2.62,10.08,3.92.29-1.28.2-2.51-.06-3.8,2.49,2.73,5.23,5.17,8.15,7.43.25.19.51.39.83.42.6.05,1.06-.53,1.3-1.08.54-1.26.58-2.72.1-4.01,2.68,3.66,5.37,7.34,8.83,10.27,1.95,1.65,4.25,3.09,6.8,3.27.63.04,1.28,0,1.86-.24.53-.22.97-.6,1.36-1.02,1.59-1.73,2.25-4.27,1.7-6.55,1.75,2.33,2.71,4.93,4.04,7.44,1.49,2.81,3.82,5.42,5.78,7.92,3.98,5.06,8.29,9.85,12.89,14.35,1.14,1.12,2.34,2.24,3.82,2.84,1.48.6,3.32.58,4.54-.46,1.74-1.5,1.47-4.24.89-6.46-1.55-5.97-4.32-11.61-8.03-16.53-3.4-4.51-8.51-10.5-14.32-11.72.25-.34.48-.77.56-1.18.1-.53-.1-1.06-.34-1.54-.85-1.69-2.23-3.1-3.9-3.99.71-.28,1.38-.74,1.83-1.35.48-.65.75-1.42.9-2.21.11-.58.15-1.19-.04-1.75-.11-.32-.28-.61-.46-.89-.54-.88-1.1-1.75-1.67-2.61-.33-.49-.6-.91-.99-1.36-2.21-2.53-4.98-4.57-8.05-5.92.47.24.83.42,1.35.49s1.1-.07,1.42-.49c.2-.26.28-.59.33-.91.05-.43.05-.86-.05-1.28-.07-.31-.19-.61-.33-.9-1.04-2.18-3.32-3.71-5.73-3.86.43.35,1.17.19,1.61-.14s.7-.87.84-1.4c.28-1.04.21-2.16-.19-3.15-.37-.92-1-1.72-1.63-2.49-.94-1.17-1.88-2.34-2.83-3.51,3.4,3.35,7.9,5.24,12.35,6.98,1.26.5,2.54.99,3.86,1.28,1.91.41,3.89.37,5.84.32.78-.02,1.61-.06,2.22-.54.57-.45.82-1.21.82-1.94s-.23-1.43-.46-2.12c-1.26-3.77-2.85-7.58-5.72-10.34.25.12.28.03.56.02,1-1.54.32-3.58-.39-5.28-1.44-3.44-2.9-6.93-5.19-9.88,1.53,1.12,3.5,1.59,5.4,1.66,1.35.04,2.83-.18,3.77-1.16.46-.48.75-1.09.97-1.71.71-1.99.77-4.21.18-6.24-.28-.96-.18-1.83-.35-2.81-.52-3-1.05-6.01-1.57-9.01.43.55.99,1.03,1.6,1.36.62.33,1.35.47,2.02.27.24-.07.48-.19.67-.36.31-.29.47-.7.56-1.11.45-1.98-.41-4.03-1.57-5.69.46.32,1.05.45,1.61.39.15,0,.3-.04.42-.12.16-.1.26-.26.34-.42.67-1.23.84-2.68.74-4.07s-.47-2.76-.83-4.11l-.88-3.27c.32.26.72.03,1.05-.22s.52-.64.69-1.02c1.9-4.23,2.17-9.08,4.27-13.22.06,7.02.75,13.97,2.25,20.82.6.02,1.28-.05,1.61-.55-.73,3.25-.51,6.7.45,9.89.23.77.6,1.61,1.35,1.89.89.33,1.85-.3,2.51-1,.74-.78,1.35-1.68,1.8-2.65-.25,2.78-.48,5.59-.4,8.38.02.71.05,1.43.29,2.1.24.67.72,1.29,1.39,1.53s1.53,0,1.84-.64c-.52,2.24-.67,4.52-.57,6.81.04.86.15,1.78.71,2.44.49.58,1.28.85,2.04.87s1.51-.21,2.22-.48c2.26-.87,4.29-2.31,5.86-4.15-1.65,1.81-2.69,4.31-2.76,6.76,0,.14,0,.28.05.4.1.26.37.4.64.5.57.2,1.35.19,1.64-.35-.96,1.92-1.92,3.9-2.08,6.04-.04.56-.02,1.18.33,1.62.5.63,1.42.66,2.22.65-1.74,2.38-2.07,5.48-2.13,8.43-.06,3.09.21,6.47,2.33,8.71.11.03.2-.16.1-.22,1.61-.14,3.03-1.06,4.29-2.07,2.35-1.87,4.26-4.29,5.55-7-.12.56.46,1.2,1,1.39s1.15.06,1.65-.21c1.33-.7,2.01-2.19,2.5-3.61.33-.96.62-1.96.63-2.97-.05.46.05.95.32,1.33.28.38.75.62,1.21.57.72-.08,1.18-.79,1.54-1.42.53-.94,1.07-1.88,1.6-2.81.19-.34.39-.7.36-1.09-.15,1.19-.58,2.29-1.07,3.39-1.09,2.45-2.11,4.94-3.06,7.45.11.37-.09.87.21,1.12.08.07.18.09.29.11.83.16,1.73-.17,2.26-.82-1.62,2.56-3.19,5.3-3.4,8.32,0,.13,0,.27.05.38.06.1.16.16.27.21.39.2.83.35,1.26.32.44-.03.89-.26,1.07-.66-2.45,4.32-4.92,8.95-4.81,13.91,0,.23.02.47.12.67.18.38.61.56,1.02.69,1.81.56,3.82.48,5.58-.22-2.5,1-5.13,7.57-6.41,9.82-1.82,3.22-3.57,6.41-4.88,9.89-2.77,7.39-3.9,15.41-3.2,23.28.14,1.54.35,3.12,1.07,4.5.71,1.38,2.02,2.54,3.56,2.69.97.1,1.85-.18,2.63-.7l-.04-.1Z"/>
          <g class="cls-2">
            <path class="cls-1" d="M60.51,86.04c-.28-.06-.56-.15-.85-.17.23.18.54.22.85.17Z"/>
            <path class="cls-1" d="M134.63,63.41c.11-.23.19-.46.17-.71-.03.24-.11.47-.17.71Z"/>
            <path class="cls-1" d="M184.84,164.46c-3-.68-6.08-1.37-9.14-1.03-1.75.2-3.45.73-5.18,1.04s-3.58.4-5.21-.26c-.3-.12-.6-.28-.79-.55-.49-.7.02-1.67.55-2.34-3.88,2.93-8.88,4.32-13.71,3.83-1.39-.14-2.92-.53-3.7-1.69-.64-.96-.62-2.21-.42-3.35.2-1.17.56-2.34,1.22-3.33.7-1.03,1.69-1.81,2.69-2.55,4.1-3,8.61-5.47,13.35-7.29-.64.05-1.35.08-1.86-.32-.17-.13-.31-.34-.27-.55.02-.12.1-.22.17-.32,1.78-2.26,4.34-3.94,7.15-4.54-.45.09-.91-.3-.99-.75-.09-.45.13-.92.45-1.26.32-.33.74-.55,1.16-.75,2.79-1.37,5.64-2.58,8.71-3.04-3.86-.03-7.71-1.09-11.05-3.04-.46-.27-.93-.57-1.22-1.02-.44-.66-.42-1.51-.39-2.3.03-.87.07-1.74.34-2.57.27-.85.78-1.6,1.29-2.33,3.11-4.48,6.69-8.79,10.46-12.72-.94.06-1.88.06-2.81-.08-.47-.07-.97-.19-1.31-.53-.57-.56-.51-1.49-.36-2.29.08-.41.17-.83.42-1.16.16-.21.38-.37.59-.52.39-.29.77-.61,1.17-.89-.44.02-1.01-.05-1.14-.47-.05-.16-.02-.33.03-.49.11-.37.32-.7.55-1.01,1.12-1.54,2.75-2.63,3.77-4.23-1.04.29-2.15.28-3.18-.03-.14-.04-.28-.09-.38-.19-.21-.22-.15-.58-.05-.87.71-2.2,2.17-4.11,2.69-6.36,1.23-5.24,2.75-10.5,4.36-15.63-1.78,2.78-3.86,5.37-6.18,7.72-.16.16-.32.32-.52.4-.48.2-1.05-.09-1.34-.52s-.52-1.02-.59-1.53c.27,2.13-.88,4.18-2.16,5.91-.56.76-1.19,1.53-2.07,1.88s-2.12.15-2.53-.7c.27,1.01.11,2.26.38,3.27.11.42-.05.86-.26,1.23-.21.38-.48.73-.61,1.14-.04.13-.08.27-.17.38-.15.17-.39.19-.61.2-.38.02-.78.03-1.1-.17-.29-.18-.47-.49-.63-.79-.41-.76-.68-1.57-1.09-2.33.02,1,.03,1.99.03,2.99,0,.81-.02,1.65-.31,2.41-.22.56-.58,1.05-.94,1.53-.08.11-.16.22-.26.31-.19.17-.45.26-.7.28-.63.05-1.24-.29-1.66-.77-.42-.47-.68-1.06-.93-1.64-.37-.83-.7-1.65-1.07-2.48.44,3.67-.97,7.66-3.75,10.11-.42-1.08-1.08-1.84-2-2.54-.06,2.23-.41,4.45-1.03,6.6-.16.56-.35,1.12-.67,1.6-.91,1.32-2.94,1.69-4.25.78-.68-.47-1.13-1.19-1.57-1.88-1.37-2.19-2.8-4.37-4.17-6.57,1.18,3.35,1.53,7,.96,10.5-.41-.68-.91-1.27-1.57-1.71.3,1.56.28,3.18-.06,4.73-.12.55-.28,1.09-.44,1.62-.19.66-.36,1.16-.56,1.81-.6-.8-1.3-1.57-2.05-2.24,1.07.96-1.17,10.46-1.46,11.84-.9,4.36-2.32,8.62-4.22,12.65-.77,1.63-1.88,3.37-3.32,4.32-.78.51-1.66.79-2.63.7-1.54-.16-2.85-1.32-3.56-2.69-.71-1.38-.93-2.95-1.07-4.5-.7-7.87.43-15.88,3.2-23.28,1.3-3.47,3.05-6.67,4.88-9.89,1.28-2.25,3.91-8.82,6.41-9.82-1.76.7-3.77.78-5.58.23-.4-.12-.83-.31-1.02-.69-.1-.21-.11-.44-.12-.67-.11-4.96,2.36-9.59,4.81-13.91-.18.4-.63.64-1.07.66-.44.03-.87-.13-1.26-.32-.1-.05-.21-.11-.27-.21-.07-.11-.06-.25-.05-.38.21-3.02,1.78-5.76,3.4-8.32-.53.65-1.43.98-2.26.82-.1-.02-.21-.05-.29-.11-.3-.25-.1-.75-.21-1.12.95-2.51,1.97-5,3.06-7.45.39-.87.7-1.76.9-2.68-.06.13-.12.26-.19.38-.53.94-1.07,1.88-1.6,2.81-.36.63-.82,1.33-1.54,1.42-.46.05-.93-.19-1.21-.57-.28-.38-.37-.87-.32-1.33,0,1.02-.3,2.01-.63,2.97-.49,1.42-1.18,2.91-2.5,3.61-.5.27-1.11.4-1.65.21s-1.12-.83-1-1.39c-1.29,2.71-3.2,5.13-5.55,7-1.27,1.01-2.68,1.93-4.29,2.07.1.06.02.25-.1.22-2.12-2.24-2.39-5.62-2.33-8.71.06-2.95.39-6.05,2.13-8.43-.8.02-1.72-.02-2.22-.65-.35-.44-.38-1.05-.33-1.62.17-2.14,1.13-4.12,2.08-6.04-.29.53-1.07.55-1.64.35-.26-.09-.54-.24-.64-.5-.05-.13-.05-.27-.05-.41.07-2.45,1.11-4.95,2.76-6.76-1.57,1.84-3.6,3.28-5.86,4.15-.71.27-1.46.49-2.22.48-.76-.01-1.54-.29-2.04-.87-.56-.66-.67-1.58-.71-2.44-.11-2.3.05-4.58.57-6.81-.32.64-1.17.88-1.84.64s-1.15-.86-1.39-1.53-.27-1.39-.29-2.1c-.08-2.79.15-5.6.4-8.38-.45.97-1.06,1.87-1.8,2.65-.66.69-1.61,1.33-2.51,1-.75-.28-1.12-1.12-1.35-1.89-.96-3.19-1.19-6.64-.45-9.89-.33.5-1.01.57-1.61.55-1.5-6.86-2.19-13.8-2.25-20.82-2.1,4.14-2.36,8.99-4.27,13.22-.17.38-.36.76-.69,1.02-.33.25-.73.48-1.05.22.29,1.09.59,2.18.88,3.27.36,1.35.73,2.71.83,4.11.07.9,0,1.82-.23,2.7,23.25,51.61,32.1,109.66,25.49,165.87,1.66-1.46,3.56-2.63,5.66-3.31,7.58-2.45,12.78,1.71,19.09,4.99-.17-.24-.05-.56.08-.82.25-.51.53-1.03,1.01-1.32.61-.37,1.37-.29,2.08-.2,2.43.32,4.84.58,7.26.9-1.13-1.14-2.1-2.45-2.87-3.86-.46-.85-.86-1.82-.61-2.75.23-.84.97-1.48,1.78-1.79.81-.32,1.71-.36,2.58-.39,2.76-.08,5.49,0,8.23.31-.16-.2-.32-.4-.48-.61-.13-.17-.26-.37-.22-.58.04-.19.2-.32.35-.44.39-.3.78-.6,1.23-.79.7-.3,1.49-.3,2.25-.31,1.17,0,2.35-.02,3.52-.03-.86-.3-1.36-1.28-1.28-2.19s.65-1.71,1.36-2.28c.72-.56,1.57-.91,2.43-1.22,2.24-.82,4.48-1.42,6.87-1.57-.97-.59-1.03-2.06-.43-3.03.6-.96,1.65-1.54,2.65-2.07,4.16-2.21,8.52-4.55,13.24-4.65-.74-.37-1.56-.56-2.38-.74l.06.04Z"/>
          </g>
          <path class="cls-1" d="M91.79,54.51c4.5,10.1,8.21,20.55,11.33,31.18,3.12,10.63,5.46,21.48,7.37,32.4,1.7,10.95,2.94,21.98,3.39,33.05l.2,8.3-.02,8.3-.34,8.29c-.18,2.76-.38,5.52-.61,8.27-.05-2.76-.08-5.53-.08-8.28l-.25-8.27-.35-8.25-.56-8.24c-.86-10.97-2.07-21.91-3.95-32.75-1.67-10.87-4.04-21.62-6.72-32.29-2.69-10.67-5.9-21.22-9.4-31.7h0Z"/>
          <path class="cls-1" d="M156.17,121.75c-.59,5.8-2.1,11.51-4.22,16.99-2.1,5.49-4.95,10.69-8.29,15.53-3.39,4.81-7.28,9.29-11.71,13.15l-3.39,2.81-3.53,2.62-3.72,2.33c-1.27.72-2.56,1.41-3.85,2.07,1.14-.91,2.3-1.79,3.46-2.64l3.33-2.77,3.24-2.85,3.08-3.01c4-4.11,7.7-8.48,10.95-13.19,3.3-4.67,6.12-9.66,8.6-14.83,2.45-5.19,4.42-10.61,6.06-16.2h-.01Z"/>
          <path class="cls-1" d="M48.58,130.17c4.71,4.48,9.53,8.79,14.58,12.78,5.07,3.97,10.29,7.73,15.75,11.12,5.42,3.45,11.06,6.56,16.8,9.48,5.73,2.98,11.78,5.21,17.72,7.89-3.15-.8-6.25-1.76-9.4-2.64-3.12-.97-6.13-2.21-9.16-3.43-6.02-2.53-11.8-5.63-17.35-9.1-5.52-3.51-10.81-7.4-15.64-11.8-4.86-4.37-9.38-9.1-13.29-14.31h-.01Z"/>
          <path class="cls-1" d="M124.35,82.98c-2.23,5.36-4.84,10.37-7.36,15.45-2.6,5.04-5.09,10.11-8.09,15.08,1.07-5.71,3.2-11.11,5.76-16.26,2.64-5.11,5.72-10.03,9.69-14.27Z"/>
        </g>
      </g>
    </g>
  </g>
</svg>