<?xml version="1.0" encoding="UTF-8"?>
<svg xmlns="http://www.w3.org/2000/svg" version="1.1" viewBox="0 0 216 216">
  <defs>
    <style>
      .cls-1 {
        fill: #c22032;
      }

      .cls-2 {
        fill: #811517;
      }

      .cls-3 {
        opacity: .4;
      }

      .cls-4 {
        fill: #9e1c20;
      }
    </style>
  </defs>
  <!-- Generator: Adobe Illustrator 28.7.1, SVG Export Plug-In . SVG Version: 1.2.0 Build 142)  -->
  <g>
    <g id="Layer_1">
      <g>
        <path class="cls-4" d="M67.24,97.15c-2.53-6.18-2.17-13.47.95-19.36,1.94-3.66,4.84-6.74,6.92-10.32,3.89-6.7,4.68-14.69,5.39-22.41,1.63,4.09,6.13,6.93,10.53,6.9.86,0,1.75-.12,2.47-.59.67-.43,1.12-1.12,1.52-1.81,2.54-4.41,3.54-9.69,2.78-14.72.49,3.48,4.07,6.36,7.58,6.2.44-.02.89-.09,1.27-.31.35-.21.61-.54.85-.87,1.67-2.31,2.72-5.07,3-7.9,1.86.8,3.98,1.32,5.86.56,1.76-.71,2.84-2.49,3.59-4.24,1.09-2.52,1.78-5.21,2.05-7.95.82,3.22,4.24,4.66,7.56,4.85.35.02.71.02,1.01-.15.32-.19.48-.55.62-.9,1.01-2.48,1.64-5.12,1.84-7.79,2.87,1.49,5.73-.02,7.91-2.41,2.18-2.39,3.07-5.69,3.41-8.91.54,3.77,1.01,7.63,1.55,11.4.3,2.07.6,4.15,1.22,6.15.64,2.08,1.61,4.04,2.25,6.11,1.57,5.13.94,10.9-1.71,15.57,2.91.38,6.31,1.02,9.21,1.4-2.95,4.72-5.45,9.72-7.44,14.92,3.4.59,6.71.08,9.83-1.38.67-.32,1.38-.74,1.62-1.44-1.68,6.57-3.54,13.11-5.97,19.44-.43,1.13-.89,2.3-.81,3.51.14,2.03,1.89,3.75,3.88,4.17,1.99.42,4.12-.31,5.69-1.6-2.45,3.38-4.13,7.34-5.2,11.37-.78,2.95-1.32,6.53.86,8.67.55.54,1.46.93,2.07.46-2.58,4.14-5.33,8.16-7.88,12.32-1.96,3.19-3.97,6.58-4.05,10.31-.01.67.04,1.37.35,1.96.67,1.29,2.29,1.74,3.74,1.82,3.92.22,7.9-1.34,10.62-4.18,1.61,3.74,5.44,6.25,9.41,7.18,3.96.93,8.1.61,12.16.28,3.64-.29,7.28-.59,10.92-.88-5.61,4.57-8.94,12.22-7.62,19.33.05-.34.09-.69.14-1.03-1.28,1.2-2.51,2.01-3.79,3.21-1.82,1.7-3.72,3.54-4.35,5.95-.63,2.41.65,5.49,3.11,5.83-.8.37-1.7.79-2.5,1.16-2.62,1.23-5.34,2.52-7.2,4.73-1.87,2.21-2.64,5.63-1,8.02.4.59,1.34,1.06,1.73.48-2.34.47-5.31,1.03-7.64,1.5-1.27.25-2.56.52-3.68,1.16-1.12.65-2.05,1.75-2.14,3.04-4.09-.94-7.78-1.18-11.97-.93-.49.03-1.01.08-1.38.4-.36.31-.49.81-.57,1.28-.85,5.21,2.39,10.12,5.47,14.4-2.84.93-5.84.94-8.82.71-9.65-.74-17.76-7.43-24.32-14.55-1.96-2.13-3.87-4.33-6.11-6.17-3.63,1.19-8.11,2.19-11.12-.15-1.36-1.05-2.22-2.6-3.02-4.12-1.91-3.63-3.68-7.33-5.29-11.1-2.73,1.83-5.21,3.86-7.94,5.69-2.64,1.77-5.52,3.92-5.95,7.07-.15,1.13,0,2.39-.72,3.28-.39.48-.97.75-1.55.95-5.12,1.8-10.64-.79-15.44-3.32-4.8-2.54-10.29-5.16-15.43-3.43,3.77-1.05,6.09-5.33,6.51-9.22.05-.48.08-.98-.09-1.43-.2-.55-.64-.96-1.07-1.35-2.35-2.14-4.71-4.28-7.28-6.14-4.25-3.06-9.26-5.5-11.89-10.03.8-1.36,1.43-2.98,1.33-4.56-.07-1.11-.6-2.13-1.16-3.1-.75-1.31-1.57-2.59-2.61-3.68-2.73-2.87-6.7-4.15-10.49-5.31,2.34-.15,4.32-2.65,4.58-4.97.26-2.33-.9-4.66-2.67-6.2-1.76-1.54-4.05-2.37-6.35-2.78,1.71.65,2.76-.45,3.65-2.04.89-1.59.79-3.59.14-5.3-.65-1.7-1.8-3.16-2.98-4.56-1.41-1.67-3.11-3.41-5.29-3.54,3.38.59,6.81-.33,10.15-1.14,5.17-1.26,10.45-2.1,15.77-2.49.54-3.65-.64-7.46-3.21-10.11,11.11-.2,22.65,4.24,32.62,9.15Z"/>
        <g class="cls-3">
          <path class="cls-1" d="M176.27,180.4c-.28.06-.61.12-.91.18.35.14.7.13.91-.18Z"/>
          <path class="cls-1" d="M190.13,152.05c.05-.34.09-.69.14-1.03-.08.07-.15.12-.23.19.04.28.04.56.09.84Z"/>
          <path class="cls-1" d="M197.75,132.71c-3.64.29-7.28.59-10.92.88-4.06.33-8.2.65-12.16-.28-3.96-.93-7.8-3.44-9.41-7.18-2.72,2.83-6.7,4.4-10.62,4.18-1.45-.08-3.07-.53-3.74-1.82-.31-.6-.36-1.29-.35-1.97.08-3.74,2.09-7.13,4.05-10.31,2.55-4.16,5.3-8.18,7.88-12.32-.61.47-1.52.08-2.07-.46-2.18-2.13-1.64-5.72-.86-8.67,1.07-4.03,2.75-7.99,5.2-11.37-1.57,1.3-3.69,2.02-5.69,1.6-1.99-.42-3.74-2.13-3.88-4.17-.08-1.21.37-2.38.8-3.51,2.43-6.33,4.29-12.87,5.97-19.44-.24.7-.94,1.13-1.62,1.44-3.12,1.46-6.44,1.98-9.83,1.38,2-5.2,4.5-10.2,7.44-14.92-2.91-.38-6.31-1.02-9.21-1.4,2.64-4.67,3.27-10.44,1.71-15.57-.63-2.08-1.61-4.04-2.25-6.12-.62-2-.92-4.08-1.22-6.15-.54-3.77-1.01-7.63-1.55-11.4-.34,3.22-1.23,6.52-3.41,8.91-1.28,1.41-2.8,2.49-4.42,2.85l-40.08,152.79c1.12,2.44,2.21,4.89,3.46,7.27.8,1.52,1.66,3.07,3.02,4.12,3.02,2.34,7.49,1.35,11.12.15,2.24,1.83,4.15,4.04,6.11,6.17,6.56,7.11,14.67,13.8,24.32,14.55,2.98.23,5.98.22,8.82-.71-3.08-4.29-6.32-9.19-5.47-14.4.08-.47.21-.97.57-1.28.37-.32.89-.37,1.38-.4,4.19-.25,7.88,0,11.97.94.09-1.29,1.02-2.4,2.14-3.04,1.12-.64,2.41-.91,3.68-1.16,2.06-.41,4.56-.89,6.74-1.32-.32-.13-.63-.37-.82-.65-1.64-2.39-.86-5.81,1-8.02,1.87-2.21,4.58-3.5,7.2-4.73.8-.37,1.7-.79,2.5-1.16-2.47-.34-3.74-3.42-3.11-5.83.63-2.41,2.53-4.25,4.35-5.95,1.2-1.13,2.37-1.93,3.56-3.01-.92-6.87,2.31-14.1,7.71-18.5Z"/>
        </g>
        <path class="cls-2" d="M139.97,23.18c-.1,2.95-.23,5.92-.43,8.88l-1.12,8.85-1.82,8.74-2.26,8.64c-3.27,11.46-7.78,22.48-12.38,33.36-4.71,10.85-9.53,21.58-14.1,32.4l-3.31,8.16-3.02,8.27-2.84,8.36c-.78,2.83-1.61,5.66-2.49,8.5.39-2.93.82-5.86,1.31-8.79l1.86-8.71,2.44-8.57,2.75-8.47c3.84-11.24,8.59-22.1,13.18-32.95,4.7-10.81,9.25-21.62,13.25-32.63,3.95-11.02,7.08-22.34,8.97-34.03Z"/>
        <path class="cls-2" d="M84.06,55.88c3.17,10.98,10.55,19.02,16.93,28.46,3.11,4.74,6.05,9.93,7.4,15.71.68,2.85,1.04,5.86.7,8.81-.35,2.88-1,5.51-.73,8.36-1.28-2.6-1.24-5.69-1.52-8.39-.19-2.67-.98-5.23-1.88-7.75-1.88-5.01-4.7-9.62-7.79-14.2-3.02-4.62-6.37-9.23-8.94-14.4-2.58-5.1-4.5-10.87-4.17-16.6Z"/>
        <path class="cls-2" d="M100.21,145.17c6.56-2.65,14.14-3.19,21.27-1.46,3.59.77,7.04,2.34,10.19,3.98,3.15,1.66,6.07,3.44,9.13,4.53,6.06,2.4,12.86,2.75,19.51,1.75,6.65-1.07,13.24-3.35,19.49-6.63-5.23,4.75-11.68,8.37-18.77,10.14-7.04,1.84-14.83,1.73-21.88-.98-7.07-2.85-12.25-7.38-18.65-9.35-6.34-2.12-13.28-2.89-20.29-1.97Z"/>
      </g>
    </g>
  </g>
</svg>