<?xml version="1.0" encoding="UTF-8"?>
<svg xmlns="http://www.w3.org/2000/svg" version="1.1" viewBox="0 0 216 216">
  <defs>
    <style>
      .cls-1 {
        fill: #c22032;
      }

      .cls-2 {
        opacity: .4;
      }

      .cls-3 {
        fill: #9e1c20;
      }
    </style>
  </defs>
  <!-- Generator: Adobe Illustrator 28.7.1, SVG Export Plug-In . SVG Version: 1.2.0 Build 142)  -->
  <g>
    <g id="Layer_1">
      <g>
        <path class="cls-1" d="M123.8,155.87c1.24,15.93,10.51,30.25,22.72,37.54,3.71,2.22,4.93,7.02,2.71,10.74-2.22,3.71-7.02,4.93-10.74,2.71-.5-.3-.96-.65-1.36-1.03l-.22-.21c-14.01-13.37-20.28-32.49-17.94-49.91.18-1.33,1.4-2.26,2.73-2.09,1.16.16,2.01,1.1,2.1,2.22v.03Z"/>
        <path class="cls-3" d="M70.39,7.14c-10.6,23.51-18.79,48.1-24.43,73.26-4.81,21.46-7.47,44.33,1,64.63,4.12,9.87,10.63,18.69,18.6,25.81,4.85,4.34,10.36,8.12,16.59,10.01,4.08,1.23,8.36,1.63,12.62,1.68,19.31.24,38.37-6.47,54.4-17.24,3.91-2.63,7.69-5.51,10.91-8.96,8.15-8.73,12.29-20.63,13.41-32.52.83-8.82.09-17.84-2.73-26.23-4.06-12.07-12.2-22.33-20.97-31.56-18.17-19.12-39.59-34.89-61.67-49.32-4.74-3.1-12.12-10.41-17.71-9.55Z"/>
        <g class="cls-2">
          <path class="cls-1" d="M160.92,156.55c8.15-8.73,12.29-20.63,13.41-32.52.83-8.82.09-17.84-2.73-26.23-4.06-12.07-12.2-22.33-20.97-31.56-17.4-18.31-37.78-33.53-58.87-47.46-.53,9.54-.1,19.21.92,28.65,3.6,33.32,13.42,66.22,30.83,94.87,5.86,9.64,12.67,18.72,20.2,27.15,2.15-1.24,4.25-2.55,6.3-3.93,3.91-2.63,7.69-5.52,10.91-8.96Z"/>
        </g>
        <path class="cls-1" d="M74.74,19.18c.13,13.28.97,26.46,2.89,39.46,1.97,12.99,4.73,25.84,8.59,38.37,3.75,12.56,8.58,24.79,14.15,36.69l4.38,8.84,4.77,8.65,5,8.55c1.81,2.76,3.58,5.56,5.33,8.39-2.16-2.52-4.29-5.07-6.38-7.66l-5.96-8.02-5.42-8.41-5.03-8.66c-6.45-11.71-11.53-24.18-15.46-36.97-3.82-12.83-6.52-26.02-7.64-39.34-1.18-13.31-1.08-26.73.79-39.89Z"/>
        <path class="cls-1" d="M93.32,122.24c-1.16-12.45,1.86-25.2,7.42-36.5,5.65-11.25,14.02-21.34,24.66-27.91-8.08,9.45-15.01,19.27-20.33,30.06-5.42,10.74-9.09,22.2-11.75,34.34Z"/>
        <path class="cls-1" d="M84.13,100.86c-4.83-5.05-9.65-9.06-15.22-12.15-5.53-3.15-11.46-5.2-18.27-6.72,6.7-2.37,14.42-.97,20.65,2.51,6.2,3.54,11.39,9.41,12.84,16.36Z"/>
      </g>
    </g>
  </g>
</svg>