<?xml version="1.0" encoding="UTF-8"?>
<svg xmlns="http://www.w3.org/2000/svg" version="1.1" viewBox="0 0 216 216">
  <defs>
    <style>
      .cls-1 {
        fill: #f78f2c;
      }

      .cls-2 {
        fill: #f36d23;
      }

      .cls-3 {
        fill: #c64327;
      }

      .cls-4 {
        opacity: .4;
      }
    </style>
  </defs>
  <!-- Generator: Adobe Illustrator 28.7.1, SVG Export Plug-In . SVG Version: 1.2.0 Build 142)  -->
  <g>
    <g id="Layer_1">
      <g>
        <path class="cls-3" d="M101.73,125.91c3.42,14.5,1.44,30.4-5.79,43.96-7.24,13.55-19.57,24.47-34.39,30.04h-.03c-2.52.96-5.33-.32-6.28-2.84-.95-2.52.33-5.33,2.85-6.28.13-.05.27-.1.41-.13,12.91-3.59,24.74-12.18,32.29-23.82,7.56-11.63,10.85-26.32,8.76-40.51-.09-.61.33-1.18.94-1.27.58-.09,1.12.29,1.25.85Z"/>
        <path class="cls-1" d="M98.61,150.91c-3.38-1.83-7.69-.92-10.93,1.14-3.24,2.07-5.69,5.13-8.28,7.97-2.59,2.84-5.54,5.58-9.22,6.68.57-.66.97-1.58,1.14-2.44-2.41,1.3-5.27,1.59-7.99,1.84.55-.84,1.13-1.67,1.68-2.51-3.96.72-7.99.78-11.99.31.44-.54.88-1.04,1.32-1.59.88-1.09,1.81-2.39,1.51-3.76-.36-1.66-2.27-2.39-3.91-2.85.37.12.65-.49.51-.86-.14-.37-.52-.57-.88-.74-2.23-1.08-4.46-2.16-6.69-3.24,1.38.23,2.76-.93,2.65-2.32-.11-1.39-1.4-2.35-2.56-3.11-1.42-.94-2.84-1.88-4.27-2.82,1.79-.09,3.04-2.22,2.83-4-.22-1.78-1.48-3.26-2.88-4.37.74.5,1.91-.34,2.08-1.22.17-.88-.26-1.75-.7-2.52-1.15-1.97-2.53-3.8-4.11-5.44,1.87.27,3.84-.27,5.19-1.59.69-.68,1.23-1.56,1.25-2.53.02-1.04-.58-2.01-1.36-2.68s-1.75-1.11-2.69-1.53c.94-.52,1.94-.95,2.88-1.47.6-.33,1.27-.74,1.4-1.42.12-.63-.29-1.26-.84-1.6-.55-.33-1.2-.43-1.84-.52.71-.88,1.45-1.94,1.2-3.04-.09-.4-.31-.76-.54-1.11-1.54-2.3-3.64-4.23-6.06-5.57,1.95-.26,3.95-.6,5.65-1.6.8-.48,1.54-1.14,1.85-2.02.31-.88.1-1.99-.67-2.51.47.5,1.41-.12,1.63-.77.48-1.42-.46-2.88-1.35-4.09-.87-1.18-1.74-2.36-2.61-3.54,2.44.26,4.99-.96,6.02-3.18,1.03-2.23.48-5.08-1.31-6.76.93.53,2.18.38,3.13-.12.95-.5,1.65-1.38,2.08-2.37.84-1.95.59-4.33-.63-6.06.54,0,.74.67,1.21.93.7.4,1.64.04,2.14-.59.5-.63.66-1.46.78-2.26.67-4.61.27-9.37-1.17-13.81,3.3,3.11,7.16,5.59,10.95,8.08,1.14.75,2.36,1.52,3.73,1.54,1.36.01,2.83-1.1,2.64-2.45.92,1.41,2.45,2.44,3.96,3.19.42.21.89.39,1.34.25.31-.09.56-.32.78-.55,2.75-2.85,3.2-7.64,1.02-10.95,1.25.77,2.1,1.61,3.34,2.41,1.35.88,3.12,1.05,4.62.46.18-.69.44-1.36.77-1.99.9.43,1.93.86,2.89.57,1.43-.44,1.88-2.2,2.07-3.68.18-1.4.31-2.87-.19-4.19.5,0,.76.59,1.21.82.72.37,1.59-.12,2.18-.67,2.42-2.24,3.46-5.86,2.6-9.04.18,1.6,1.51,3.02,3.04,3.51,1.41-.62,2.34-2,2.98-3.4.72-1.56,1.17-3.41.44-4.96.36.51.86.96,1.37,1.32.51.36,1.19.53,1.76.28.39-.17.68-.52.92-.87,1.34-1.98,1.59-4.66.63-6.85.65.68,1.81.67,2.65.25.84-.42,1.45-1.2,1.96-1.99,2.84-4.38,3.62-9.73,4.34-14.9l.93-6.68c1.47,5.93,2.45,11.91,3.92,17.85.29,1.19.65,2.47,1.61,3.22.97.75,2.74.51,3.01-.68,1.22,2.44.94,5.75,2.79,7.76.16.18.35.35.57.43.43.16.93-.02,1.26-.34.33-.32.53-.75.73-1.17.06,1.73.38,3.43.9,5.08.35,1.12.84,2.25,1.76,2.98,1.19.96,3.03,1,4.27.1-.23,2.02-.13,3.96.16,5.97.07.47.14.95.35,1.37.42.83,1.32,1.31,1.86,2.07.05,1.01.29,2.03.86,2.87.35.52.81.99,1.41,1.18.8.26,1.7-.06,2.33-.62.63-.56,1.03-1.33,1.37-2.1-1.08,2.55-2.19,5.36-1.42,8.02.36,1.27,1.41,2.54,2.72,2.41-.58.71-.31,1.73.04,2.57.29.69.68,1.42,1.39,1.66.39.13.82.09,1.23.03,1.68-.24,3.5-.76,4.44-2.17-.78,2.07-1.34,4.22-1.57,6.42-.06.61-.11,1.23.02,1.83.14.66.48,1.26.85,1.82.29.44.64.9,1.15,1.04.52.14,1.06-.09,1.54-.32,1.42-.7,2.9-1.71,3.22-3.25-.21,1.58,1.2,3.39,2.64,4.07,1.45.68,3.16.59,4.68.09,1.52-.5,2.88-1.37,4.23-2.23,1.24-.8,2.49-1.59,3.73-2.39,2.11-1.35,4.33-2.83,5.32-5.13-1.91,4.75-3.02,9.8-3.53,14.89-.12,1.21-.19,2.51.44,3.55.62,1.04,2.21,1.58,3.09.74-.88,1.46-1.58,3.05-2.39,4.56-.43.81-.86,1.65-.95,2.56-.13,1.34.55,2.72,1.69,3.43,1.14.71,2.68.72,3.83.01-1.62,1.87-3.17,3.83-4.3,6.03-.46.9-.83,1.98-.39,2.88.16.33.42.6.7.84,1.43,1.21,3.55,1.53,5.27.8-.5.74-1.11,1.41-1.77,2-2.51,2.26-4.5,5.1-5.75,8.24-.19.47-.36.96-.3,1.46.14,1.08,1.27,1.7,2.26,2.14-1.18,1.13-2.04,2.61-2.66,4.11-.22.53-.39,1.15-.11,1.65.19.34.56.53.86.78.46.39.79.93,1.32,1.23.32.18.69.25,1.06.32,1.27.24,2.55.48,3.82.73-4.45,1.75-8.52,4.15-12.45,6.88-1.17.81-2.33,1.68-3.19,2.82-.86,1.14-1.39,2.59-1.14,4,.25,1.41,1.4,2.69,2.82,2.8-1.5.06-2.87,1.07-4.05,2-.72.56-1.42,1.2-1.76,2.04-.46,1.12-.19,2.45.46,3.48.64,1.03,1.62,1.81,2.62,2.49.95.64,1.94,1.21,2.96,1.71-3,.24-5.6,2-8.18,3.55-.51.31-1.03.62-1.44,1.06-.64.69-.95,1.61-1.24,2.5-1.75.06-3.45,1.27-4.09,2.89-.18.45-.29.95-.18,1.42.1.44.38.81.65,1.17.53.7,1.05,1.4,1.58,2.09-2.96.2-5.86,1.59-7.76,3.87-.3.36-.58.74-.75,1.17-.5,1.23-.08,2.62.34,3.88-.83-.93-1.57-1.46-2.71-1.94-1.01-.42-2.06-.77-3.15-.86-2.36-.19-4.74.9-6.31,2.68-1.57,1.78-2.35,4.17-2.36,6.54-1.79-2.22-3.97-4.06-6.41-5.54-1.04-.63-2.18-1.2-3.39-1.25-1.84-.07-3.54,1.08-4.7,2.51-1.19-2.99-2.29-5.93-3.48-8.93-.83-2.1-1.67-4.2-2.79-6.16-3.45-6.04-8.8-10.86-14.91-14.17Z"/>
        <g class="cls-4">
          <path class="cls-2" d="M164.33,150.23c-.64-1.03-.92-2.35-.46-3.48.34-.84,1.05-1.48,1.76-2.04,1.18-.93,2.55-1.93,4.05-2-1.42-.11-2.58-1.4-2.82-2.8-.25-1.41.29-2.86,1.14-4,.86-1.14,2.02-2.01,3.19-2.82,3.93-2.72,8-5.13,12.45-6.88-1.27-.24-2.55-.48-3.82-.73-.36-.07-.74-.14-1.06-.32-.53-.3-.86-.84-1.32-1.23-.3-.25-.66-.44-.86-.78-.29-.49-.11-1.12.11-1.65.63-1.51,1.48-2.99,2.66-4.12-.99-.44-2.12-1.06-2.26-2.14-.06-.5.11-1,.3-1.46,1.25-3.14,3.24-5.98,5.75-8.24.66-.6,1.27-1.27,1.77-2-1.72.73-3.84.41-5.27-.8-.28-.24-.54-.51-.7-.84-.44-.9-.07-1.99.39-2.88,1.13-2.2,2.68-4.17,4.3-6.03-1.14.7-2.69.7-3.83-.01-1.14-.71-1.82-2.1-1.69-3.43.09-.91.52-1.75.95-2.56.81-1.51,1.5-3.1,2.39-4.56-.88.84-2.46.3-3.09-.74-.62-1.04-.56-2.34-.44-3.55.52-5.09,1.63-10.14,3.54-14.89-.99,2.3-3.21,3.78-5.32,5.13-1.24.8-2.49,1.59-3.73,2.39-1.35.86-2.71,1.73-4.23,2.23-1.52.5-3.23.59-4.68-.09-1.45-.68-2.86-2.49-2.64-4.07-.32,1.55-1.8,2.55-3.22,3.25-.48.24-1.02.47-1.54.32-.51-.14-.86-.6-1.15-1.04-.37-.57-.71-1.16-.85-1.82-.13-.6-.09-1.22-.02-1.83.23-2.2.8-4.35,1.57-6.42-.95,1.41-2.76,1.93-4.44,2.17-.41.06-.84.1-1.23-.03-.71-.24-1.1-.97-1.39-1.66-.35-.84-.62-1.87-.04-2.57-1.31.13-2.36-1.15-2.72-2.41-.77-2.66.34-5.47,1.42-8.02-.34.77-.74,1.54-1.37,2.1-.63.56-1.53.88-2.33.62-.59-.19-1.06-.67-1.41-1.18-.57-.84-.81-1.85-.86-2.87-.54-.76-1.44-1.24-1.86-2.07-.21-.42-.29-.9-.35-1.37-.29-2.02-.39-3.95-.16-5.97-1.24.9-3.08.85-4.27-.1-.91-.73-1.41-1.87-1.76-2.98-.52-1.65-.84-3.35-.9-5.08-.19.42-.39.85-.73,1.17-.33.32-.83.51-1.26.34-.23-.09-.41-.26-.57-.43-1.85-2.01-1.56-5.32-2.79-7.76-.27,1.19-2.04,1.43-3.01.68-.97-.75-1.32-2.03-1.61-3.22-.82-3.3-1.48-6.61-2.17-9.93l-20.1,140.88c5.63,3.28,10.54,7.85,13.77,13.5,1.12,1.96,1.95,4.06,2.79,6.16,1.19,2.99,2.29,5.93,3.48,8.93,1.15-1.44,2.86-2.59,4.7-2.51,1.22.05,2.35.62,3.39,1.25,2.44,1.49,4.62,3.32,6.41,5.54.02-2.37.8-4.76,2.36-6.54,1.57-1.78,3.94-2.87,6.31-2.68,1.09.09,2.15.44,3.15.86,1.14.48,1.89,1.01,2.71,1.94-.42-1.26-.84-2.65-.34-3.88.17-.43.45-.81.75-1.17,1.9-2.28,4.8-3.66,7.76-3.87-.53-.7-1.05-1.4-1.58-2.09-.27-.36-.55-.73-.65-1.17-.11-.47,0-.97.18-1.42.65-1.62,2.35-2.83,4.09-2.89.29-.89.6-1.82,1.24-2.5.41-.44.93-.75,1.44-1.06,2.58-1.55,5.18-3.31,8.18-3.55-1.03-.5-2.02-1.07-2.96-1.71-1.01-.68-1.98-1.46-2.62-2.49Z"/>
        </g>
        <path class="cls-2" d="M119,23.39c1.24,10.43,1.6,20.97,1.3,31.49-.29,10.53-1.41,21.02-3.03,31.43-1.8,10.38-4.11,20.68-7.2,30.74l-2.45,7.5-2.67,7.42-2.98,7.3-3.23,7.18,2.68-7.4,2.5-7.45,2.36-7.49,2.14-7.55c2.73-10.1,5.04-20.3,6.66-30.63,1.79-10.3,2.86-20.71,3.52-31.15.65-10.44.72-20.92.4-31.42Z"/>
        <path class="cls-2" d="M171.21,80.49c-2.34,6.45-5.85,12.48-10.15,17.9-4.28,5.44-9.46,10.17-15.21,14.06-5.77,3.85-12.11,6.86-18.76,8.78-3.32.95-6.71,1.68-10.12,2.16-3.42.4-6.86.63-10.28.48,3.41-.35,6.79-.8,10.1-1.55,3.32-.68,6.6-1.58,9.78-2.71,6.37-2.25,12.47-5.22,18.04-8.99,5.6-3.73,10.65-8.26,15.14-13.31,4.47-5.07,8.28-10.74,11.45-16.8Z"/>
        <path class="cls-2" d="M64.85,71.86c2.6,5.54,5.28,11.01,8.2,16.34,2.95,5.31,6.03,10.55,9.39,15.6,3.31,5.08,6.89,9.99,10.6,14.8,1.86,2.4,3.79,4.76,5.76,7.08l2.96,3.49c1.02,1.13,2.03,2.28,3.03,3.44-2.36-1.96-4.57-4.08-6.79-6.2-2.15-2.19-4.23-4.44-6.28-6.73-4.06-4.61-7.74-9.55-11.14-14.67-3.35-5.15-6.43-10.49-9.05-16.05-2.64-5.54-4.94-11.25-6.69-17.12Z"/>
      </g>
    </g>
  </g>
</svg>